<svg xmlns="http://www.w3.org/2000/svg" xmlns:xlink="http://www.w3.org/1999/xlink" width="280" height="280"><defs><path id="e" d="M126.55 125.82l.72.34.64.46.56.55.45.65.35.72.21.78.08.83-.08.83-.21.78-.35.72-.45.64-.56.56-.64.46-.72.34-.78.21-.83.08-.84-.08-.77-.21-.72-.34-.65-.46-.56-.56-.45-.64-.35-.72-.21-.78-.07-.83.07-.83.21-.78.35-.72.45-.65.56-.55.65-.46.72-.34.77-.22.84-.07.83.07.78.22zm-3.05 2.37l-.52.52-.35.67-.12.77.12.76.35.67.52.53.67.34.77.12.76-.12.67-.34.53-.53.34-.67.13-.76-.13-.77-.34-.67-.53-.52-.67-.35-.76-.12-.77.12-.67.35z"/><path id="c" d="M153.31 122.17l.19.03.2.02.18.04.2.04.18.05.18.06.18.06.17.07.17.08.17.08.33.19.16.09.15.12.14.11.15.11.14.13.13.13.13.13.12.14.24.29.1.15.1.16.1.16.09.17.16.33.07.18.12.36.05.19.04.18.04.19.03.19.01.2.02.2v14.92l.25.17.25.17.24.18.47.37.45.4.22.21.21.21.21.22.2.22.2.23.19.22.37.48.17.25.17.25.16.25.16.26.15.26.28.53.14.28.12.28.12.28.11.28.1.29.1.29.09.29.08.3.08.3.07.31.05.3.06.31.04.31.04.31.03.32.02.32.01.31v.33l-.01.5-.03.5-.05.49-.07.49-.09.49-.1.47-.13.47-.14.46-.16.45-.18.45-.2.43-.21.43-.23.41-.23.41-.26.4-.28.38-.28.38-.3.37-.31.35-.33.33-.34.33-.35.32-.37.29-.37.29-.39.27-.39.26-.41.24-.42.23-.43.21-.43.19-.45.19-.45.15-.46.15-.46.12-.48.11-.48.09-.49.07-.5.05-.49.03-.51.01h-.35l-.36-.02-.35-.02-.35-.04-.34-.05-.35-.05-.34-.06-.33-.08-.33-.08-.33-.09-.33-.1-.32-.11-.32-.12-.31-.13-.31-.13-.3-.14-.3-.15-.3-.16-.57-.34-.28-.19-.28-.18-.53-.4-.26-.21-.25-.22-.24-.22-.24-.23-.24-.24-.22-.24-.23-.25-.21-.26-.21-.25-.2-.27-.19-.27-.19-.28-.18-.28-.17-.29-.16-.29-.16-.29h-18.7l-.19-.01-.2-.01-.39-.05-.19-.03-.19-.05-.18-.05-.18-.06-.18-.06-.17-.07-.18-.08-.17-.08-.16-.08-.32-.2-.3-.22-.14-.12-.14-.13-.13-.13-.13-.13-.13-.14-.12-.14-.11-.15-.1-.15-.11-.16-.09-.16-.09-.16-.09-.17-.07-.17-.07-.18-.07-.18-.05-.18-.05-.19-.04-.18-.04-.19-.03-.19-.01-.2-.02-.2V126.8l.02-.2.01-.2.03-.19.04-.19.04-.18.05-.19.05-.18.07-.18.07-.18.07-.17.09-.16.09-.17.09-.16.11-.16.1-.15.11-.15.12-.14.13-.14.13-.13.13-.13.14-.13.14-.11.3-.23.16-.09.16-.1.16-.09.17-.08.18-.08.17-.07.18-.06.18-.06.18-.05.19-.04.19-.04.39-.05.2-.01H153.11l.2.01zm-3.76 19.89l-.75.15-.73.2-.71.25-.68.3-.65.35-.63.41-.59.43-.56.49-.52.52-.48.56-.44.59-.4.62-.35.65-.3.69-.26.7-.2.73-.14.75-.1.77-.03.79.03.78.1.77.14.76.2.72.26.71.3.68.35.66.4.62.44.6.48.55.52.52.56.48.59.45.63.39.65.35.68.31.71.25.73.2.75.15.77.09.78.03.79-.03.77-.09.75-.15.73-.2.71-.25.68-.31.65-.35.63-.39.59-.45.55-.48.52-.52.49-.55.44-.6.4-.62.35-.66.3-.68.25-.71.21-.72.14-.76.09-.77.04-.78-.04-.79-.09-.77-.14-.75-.21-.73-.25-.7-.3-.69-.36-.65-.39-.62-.44-.59-.49-.56-.52-.52-.55-.49-.59-.43-.63-.41-.65-.35-.68-.3-.71-.25-.73-.2-.75-.15-.77-.09-.79-.03-.78.03-.77.09zm-28.29-17.7l-.11.01-.21.03-.1.03-.2.05-.1.04-.19.08-.18.09-.09.06-.08.05-.09.06-.08.06-.08.07-.07.07-.15.14-.13.15-.06.08-.06.09-.16.26-.04.09-.04.1-.11.29-.05.2-.02.11-.01.1-.01.11-.01.11v25.88l.01.14.01.08.06.21.03.07.02.07.1.21.05.07.04.07.05.06.05.07.05.06.06.07.07.07.06.07.14.13.07.07.25.19.08.06.19.13.1.06.1.06.1.07.11.06.11.06.12.06.11.06.12.06.13.07.25.11h17.84l-.02-.08-.02-.08-.02-.08-.02-.08-.02-.08-.02-.08-.02-.08-.11-.49-.01-.08-.02-.08-.01-.09-.02-.08-.02-.16-.02-.09-.01-.08-.01-.08-.01-.09-.02-.17-.01-.08-.01-.08v-.09l-.01-.08-.01-.18-.01-.08-.01-.18V152.18l-.01-.08v-.09l.02-.61.01-.21.02-.2.03-.4.09-.59.03-.19.04-.2.04-.19.09-.39.05-.19.05-.18.06-.2.06-.18.06-.18.06-.19.21-.54.08-.18.08-.18.07-.17.09-.17.09-.18.17-.34.1-.16.1-.17.1-.17.1-.16.21-.32.33-.47-8.73-8.14-10.43 8.87-.03.02-.05.04-.01.01-.04.02-.01.01-.04.02-.02.01-.01.01-.02.01-.02.01-.03.01-.02.01-.12.04-.03.01h-.02l-.03.01h-.02l-.02.01h-.07l-.02.01h-.14l-.03-.01h-.04l-.05-.01h-.02l-.12-.03h-.02l-.02-.02-.05-.01-.02-.01-.02-.01-.02-.01-.02-.01-.05-.02-.01-.01-.03-.02-.03-.02-.03-.02-.01-.01-.02-.02-.02-.01-.07-.07-.07-.07-.03-.03-.05-.07-.02-.04-.03-.04-.02-.04-.02-.04-.02-.03-.01-.05-.01-.04-.03-.08v-.04l-.01-.05-.01-.08v-.17l.02-.12.04-.16.04-.08.02-.04.01-.04.1-.14.05-.07.07-.06.03-.03 11.17-9.49.02-.02.02-.02h.01l.01-.02h.01l.01-.01h.01l.01-.01.02-.01.01-.01h.01v-.01h.02v-.01h.01v-.01h.03l.01-.01.01-.01h.01v-.01h.01l.03-.01.02-.01h.02v-.01h.02v-.01h.03l.01-.01h.03v-.01h.01l.01-.01h.03l.02-.01h.04l.01-.01h.08l.01-.01h.19v.01h.09l.01.01h.04l.01.01h.05l.01.01.02.01h.02l.01.01h.02l.01.01h.01l.02.01.01.01h.02l.01.01h.02v.01h.01l.02.01.01.01h.02v.01l.01.01h.02l.01.01.01.01h.01l.01.01.01.01.01.01.02.01.01.01.01.01h.01l.01.01.01.01.02.01.01.01v.01h.01l.01.01 5.9 5.49 4.96-2.85h.01v-.01l.03-.01h.01l.01-.01h.01l.01-.01h.01l.01-.01h.03l.01-.01.01-.01h.01l.01-.01h.03l.01-.01.01-.01h.03l.02-.01h.03l.02-.01h.05l.01-.01h.02l.01-.01h.26l.02.01h.02l.01.01h.05l.01.01h.05l.01.01h.03l.01.01.04.02h.02l.03.02h.01l.03.01.01.01h.02l.01.01.01.01h.01l.01.01h.01v.01l.02.01.01.01h.01l.03.01.01.02h.01l.03.02.02.02h.01l3.57 2.9h.05l.05-.02h.05l.05-.01.11-.01.05-.02.11-.01.05-.01.21-.02.47-.06h.05l.11-.01h.16l.05-.01h.22l.05-.01h.51l.12.01h.11l.24.01.11.01h.12l.11.02.23.02.12.01.11.01.12.02.11.01.11.02.12.02.22.04.11.02.12.02.33.07.1.03.11.03.23.06.1.02.11.04.11.03.11.03.1.04.21.07.11.03.11.04.1.04.1.04.11.04v-13.71l-.01-.11-.01-.11-.03-.21-.03-.1-.06-.2-.07-.19-.04-.1-.04-.09-.16-.26-.06-.09-.06-.08-.07-.07-.14-.15-.07-.07-.07-.07-.09-.07-.16-.12-.09-.05-.08-.06-.09-.04-.09-.05-.19-.08-.1-.04-.1-.03-.1-.02-.1-.03-.21-.03-.11-.01-.11-.01h-31.65l-.11.01zm21.48 18.71l.83-.71.9-.64.95-.56 1-.48-1.8-1.46-3.72 2.13 1.84 1.72z"/></defs><defs><use xlink:href="#c"/><use id="d" xlink:href="#c"/><use xlink:href="#e"/><use id="f" xlink:href="#e"/><path id="a" d="M280-.91V280H-.86V-.91H280z"/><path id="b" d="M150.54 144.32c.89-.03 1.7.78 1.67 1.67v5.04c1.41.01 2.81-.01 4.21.01.9-.03 1.7.78 1.67 1.67.03.89-.77 1.7-1.66 1.68h-5.9c-.89.03-1.7-.77-1.67-1.67-.01-2.24-.01-4.49 0-6.73-.03-.9.78-1.71 1.68-1.67z"/></defs><use fill="#f9f9f9" xlink:href="#a"/><use fill-opacity="0" stroke="#000" stroke-opacity="0" xlink:href="#a"/><use fill="#bfbfbf" xlink:href="#b"/><use fill-opacity="0" stroke="#000" stroke-opacity="0" xlink:href="#b"/><use fill="#bfbfbf" xlink:href="#c"/><use fill-opacity="0" stroke="#000" stroke-opacity="0" xlink:href="#c"/><g><use fill-opacity="0" xlink:href="#d"/><use fill-opacity="0" stroke="#000" stroke-opacity="0" xlink:href="#d"/></g><g><use fill="#bfbfbf" xlink:href="#e"/><use fill-opacity="0" stroke="#000" stroke-opacity="0" xlink:href="#e"/></g><g><use fill-opacity="0" xlink:href="#f"/><use fill-opacity="0" stroke="#000" stroke-opacity="0" xlink:href="#f"/></g></svg>