<svg xmlns="http://www.w3.org/2000/svg" viewBox="0 0 2415 330"><defs><style>.a{fill:#fff}.c{fill:none;stroke:#fff;stroke-miterlimit:10;stroke-width:10px}</style></defs><path class="a" d="M477.43 90H570V60H465l-45 45 107.57 120-15 15H420v30h105l45-45-107.57-120 15-15zM600 60v210h30V90h38.79L720 141.21V270h30V128.79L681.21 60H600zM848.79 60L780 128.79v72.43L848.79 270h72.43L990 201.21v-72.42L921.21 60h-72.42zM960 188.79L908.79 240h-47.58L810 188.79v-47.58L861.21 90h47.57L960 141.21v47.57zM1200 240h-8.79L1140 188.79V60h-30v141.21l23.79 23.79-15 15h-17.58L1050 188.79V60h-30v141.21l68.79 68.79h42.42l23.79-23.79 23.79 23.79H1230V60h-30v180zM1928.79 60L1860 128.79v72.43l68.79 68.78h72.43l68.78-68.79v-72.42L2001.21 60h-72.43zM2040 188.79L1988.79 240h-47.57L1890 188.79v-47.58L1941.21 90h47.57l51.22 51.21v47.57zM2100 60v210h30V90h68.79l30 30H2250V98.79L2211.21 60H2100zM2361.21 240L2310 188.79V180h95v-30h-95V60h-30v141.21l68.79 68.79H2415v-30h-53.79zM1680 60v210h30v-60h81.21l38.79-38.79V98.79L1791.21 60H1680zm120 98.79L1778.79 180H1710V90h68.79l21.21 21.21v47.58zM1640 270h-71.21L1500 201.21V98.79L1538.79 60h72.43L1650 98.79v42.43L1581.21 210h-30l30 30H1640v30zm-110-90h38.79l51.21-51.21v-17.58L1598.79 90h-47.57L1530 111.21V180zM1470 248.79L1416.21 195l53.79-53.79V98.79L1431.21 60H1320v210h30V90h68.79l21.21 21.21v17.58L1373.79 195l75 75H1470v-21.21z"/><path fill="#203040" d="M39.9929 165L164.9952 39.9977 289.9976 165 164.9952 290.0023z"/><path class="c" d="M180 210h-30v30l-30 30v30h30v-30h30v30h30v-30l-30-30v-30zM150 120h30V90l30-30V30h-30v30h-30V30h-30v30l30 30v30zM60 180H30v30h30l30-30h30v-30H90l-30-30H30v30h30v30zM270 150h30v-30h-30l-30 30h-30v30h30l30 30h30v-30h-30v-30z"/><path class="a" d="M170 310v10h-10v-10h10m10-10h-30v30h30v-30zM170 10v10h-10V10h10m10-10h-30v30h30V0zM20 160v10H10v-10h10m10-10H0v30h30v-30zM320 160v10h-10v-10h10m10-10h-30v30h30v-30zM80 40v32.93l2.93 2.93 33.54 33.54-7.07 7.07-33.54-33.54L72.93 80H40V70h30V40h10m10-10H60v30H30v30h38.79l40.61 40.61 21.21-21.21L90 68.79V30zM260 40v30h30v10h-32.93l-2.93 2.93-33.54 33.54-7.07-7.07 33.54-33.54 2.93-2.93V40h10m10-10h-30v38.79l-40.61 40.61 21.21 21.21L261.21 90H300V60h-30V30zM109.39 213.54l7.07 7.07-33.53 33.53-2.93 2.93V290H70v-30H40v-10h32.93l2.93-2.93 33.54-33.54m0-14.14L68.79 240H30v30h30v30h30v-38.79l40.61-40.61-21.21-21.21zM220.61 213.54l33.54 33.54 2.93 2.93H290v10h-30v30h-10v-32.94l-2.93-2.93-33.54-33.54 7.07-7.07m0-14.14l-21.21 21.21L240 261.21V300h30v-30h30v-30h-38.79l-40.61-40.61zM145 145h40v40h-40z"/><path d="M180 150v30h-30v-30h30m10-10h-50v50h50v-50z" fill="#60c0c0"/></svg>